<svg version="1.1" id="Layer_1" xmlns="http://www.w3.org/2000/svg" xmlns:xlink="http://www.w3.org/1999/xlink" x="0px" y="0px"
	 width="100%" viewBox="0 0 50 50" enable-background="new 0 0 50 50" xml:space="preserve">
<path fill="#FFFFFF" opacity="1.000000" stroke="none" 
	d="
M1.000000,27.000084 
	C1.000000,18.833406 1.102836,11.164478 0.934118,3.501528 
	C0.886668,1.346451 1.350814,0.918696 3.500437,0.936035 
	C18.499456,1.057018 33.500370,1.056988 48.499393,0.936059 
	C50.648659,0.918731 51.081306,1.350772 51.063969,3.500422 
	C50.942982,18.499441 50.943012,33.500355 51.063934,48.499378 
	C51.081261,50.648602 50.649273,51.081306 48.499596,51.063965 
	C33.500576,50.942974 18.499659,50.943012 3.500638,51.063931 
	C1.351440,51.081257 0.879555,50.655155 0.934000,48.498455 
	C1.110598,41.502907 1.000000,34.500107 1.000000,27.000084 
z"/>
<path fill="#04B4B5" opacity="1.000000" stroke="none" 
	d="
M6.307950,41.307190 
	C6.110751,30.980406 6.063729,20.948528 6.087110,10.451907 
	C6.675541,8.294704 7.041520,6.462634 9.692764,6.307952 
	C20.019554,6.110751 30.051455,6.063729 40.548096,6.087110 
	C42.705242,6.675548 44.537323,7.041457 44.692039,9.692656 
	C44.889248,20.019468 44.936272,30.051403 44.912891,40.548084 
	C44.324459,42.705235 43.958557,44.537319 41.307350,44.692036 
	C30.980602,44.889278 20.948730,44.936333 10.452135,44.912945 
	C8.294853,44.324509 6.462659,43.958607 6.307950,41.307190 
z"/>
<path fill="#000000" opacity="1.000000" stroke="none" 
	d="
M9.574616,6.084731 
	C8.962936,7.393147 6.848664,7.628763 6.446875,9.844200 
	C5.717363,7.572732 5.546541,5.361818 9.574616,6.084731 
z"/>
<path fill="#000000" opacity="1.000000" stroke="none" 
	d="
M44.915268,9.574505 
	C43.606941,8.962760 43.371201,6.848631 41.155807,6.446871 
	C43.427147,5.717443 45.638176,5.546397 44.915268,9.574505 
z"/>
<path fill="#000000" opacity="1.000000" stroke="none" 
	d="
M6.084732,41.425335 
	C7.393037,42.037209 7.628808,44.151443 9.844423,44.553127 
	C7.573048,45.282501 5.361776,45.453728 6.084732,41.425335 
z"/>
<path fill="#000000" opacity="1.000000" stroke="none" 
	d="
M41.425499,44.915268 
	C42.037289,43.606979 44.151398,43.371216 44.553131,41.155796 
	C45.282547,43.427128 45.453621,45.638172 41.425499,44.915268 
z"/>
<path fill="#F9FBFB" opacity="1.000000" stroke="none" 
	d="
M10.692106,14.184628 
	C20.903049,19.380920 30.729425,20.277025 40.999531,12.812732 
	C40.999531,20.356136 41.003643,26.464609 40.991760,32.573051 
	C40.990803,33.064716 40.998920,33.611580 40.800262,34.038548 
	C39.681000,36.444115 25.465254,41.685734 22.992264,40.639503 
	C22.840931,40.575478 22.715271,40.451759 22.564861,40.384415 
	C8.480198,34.078796 8.480115,34.078979 10.692106,14.184628 
z"/>
<path fill="#AFE7E8" opacity="1.000000" stroke="none" 
	d="
M27.978390,15.432412 
	C23.836140,16.392471 23.836140,16.392471 17.756617,12.941158 
	C20.553787,13.605805 23.350956,14.270452 26.537552,14.947203 
	C27.337219,14.633169 27.705568,14.656913 27.978390,15.432412 
z"/>
<path fill="#A5E4E4" opacity="1.000000" stroke="none" 
	d="
M28.262535,15.697166 
	C27.804518,15.494421 27.605421,15.281882 27.130829,15.047877 
	C28.375338,14.317290 29.823698,13.675275 31.436050,12.960567 
	C31.668419,15.573123 29.481436,14.800205 28.262535,15.697166 
z"/>
<path fill="#AAE6E6" opacity="1.000000" stroke="none" 
	d="
M25.651672,12.754860 
	C26.222904,11.548173 27.153587,10.719624 28.665335,11.186481 
	C28.341478,12.749622 27.148537,12.865326 25.651672,12.754860 
z"/>
<path fill="#5F5F5F" opacity="1.000000" stroke="none" 
	d="
M28.879097,24.091732 
	C27.915514,26.760262 27.041000,29.063999 26.191902,31.377068 
	C25.750450,32.579651 25.549690,34.436764 23.853548,33.916466 
	C21.944433,33.330837 23.328156,31.783785 23.664717,30.718309 
	C24.406878,28.368811 25.138760,25.992931 26.176138,23.768316 
	C26.820101,22.387363 28.015038,21.009741 28.879097,24.091732 
z"/>
<path fill="#6A6A6A" opacity="1.000000" stroke="none" 
	d="
M18.855768,25.066732 
	C19.926395,24.756441 20.601856,23.805658 21.418308,24.566856 
	C22.050787,25.156536 21.654243,25.837421 21.114197,26.224716 
	C20.195240,26.883745 19.182659,27.412220 18.077650,28.074530 
	C18.808743,29.792065 21.644064,29.253902 21.637695,31.873026 
	C18.574198,31.701153 15.246057,31.084871 14.173406,28.425924 
	C13.469655,26.681423 17.097837,26.464268 18.855768,25.066732 
z"/>
<path fill="#6B6B6B" opacity="1.000000" stroke="none" 
	d="
M32.149551,29.351311 
	C33.044567,28.840641 34.387085,28.875206 33.194557,27.695814 
	C32.224854,26.736795 30.145267,27.007509 30.125328,24.929243 
	C31.220016,23.396761 32.312370,24.732712 33.009693,25.195425 
	C34.680889,26.304356 38.123581,26.282452 37.691353,28.654177 
	C37.302513,30.787840 33.943241,30.831141 31.940081,31.878510 
	C31.280302,32.223480 30.238552,32.491096 30.195244,31.134197 
	C30.161983,30.092094 31.148705,29.933146 32.149551,29.351311 
z"/>
</svg>